PathFileType	4	(X/Y/Z)	E:/New_biomech_experiments/27_06_2024_Shreyas_Arm26_updated ground/Afternoon session/Neeraj_PP_27_6_24_elbow_flexion_t01.trc	
DataRate	CameraRate	NumFrames	NumMarkers	Units	OrigDataRate	OrigDataStartFrame	OrigNumFrames	
120.00	120.00	89	4	m	120.00	2447	6524	
Frame#	Time	MarkerSet_r_acromion			MarkerSet_r_humerus_epicondyle			MarkerSet_r_radius_styloid			MarkerSet_RHAND			
		X1	Y1	Z1	X2	Y2	Z2	X3	Y3	Z3	X4	Y4	Z4	

2447	20.383	-0.00085	0.78128	0.22406	-0.02699	0.44108	0.25368	0.22360	0.52764	0.23595	0.29847	0.57251	0.18541 
2448	20.392	-0.00086	0.78126	0.22407	-0.02700	0.44108	0.25368	0.22340	0.52806	0.23597	0.29822	0.57299	0.18532 
2449	20.400	-0.00086	0.78124	0.22407	-0.02700	0.44107	0.25369	0.22321	0.52848	0.23598	0.29796	0.57348	0.18523 
2450	20.408	-0.00087	0.78121	0.22407	-0.02701	0.44107	0.25369	0.22302	0.52889	0.23599	0.29771	0.57397	0.18516 
2451	20.417	-0.00087	0.78119	0.22408	-0.02702	0.44106	0.25370	0.22283	0.52931	0.23599	0.29745	0.57447	0.18510 
2452	20.425	-0.00088	0.78117	0.22409	-0.02702	0.44106	0.25371	0.22265	0.52972	0.23600	0.29719	0.57499	0.18504 
2453	20.433	-0.00089	0.78115	0.22411	-0.02703	0.44106	0.25372	0.22246	0.53013	0.23601	0.29693	0.57550	0.18500 
2454	20.442	-0.00091	0.78114	0.22412	-0.02704	0.44106	0.25373	0.22228	0.53053	0.23600	0.29667	0.57602	0.18496 
2455	20.450	-0.00092	0.78113	0.22413	-0.02704	0.44106	0.25375	0.22209	0.53092	0.23599	0.29640	0.57655	0.18492 
2456	20.458	-0.00094	0.78111	0.22415	-0.02705	0.44106	0.25376	0.22191	0.53132	0.23597	0.29613	0.57707	0.18488 
2457	20.467	-0.00096	0.78109	0.22416	-0.02705	0.44106	0.25378	0.22172	0.53171	0.23594	0.29586	0.57758	0.18484 
2458	20.475	-0.00098	0.78108	0.22417	-0.02706	0.44106	0.25379	0.22153	0.53210	0.23592	0.29559	0.57809	0.18482 
2459	20.483	-0.00101	0.78106	0.22418	-0.02707	0.44106	0.25381	0.22135	0.53250	0.23591	0.29532	0.57861	0.18479 
2460	20.492	-0.00104	0.78105	0.22419	-0.02708	0.44107	0.25383	0.22116	0.53290	0.23590	0.29505	0.57912	0.18478 
2461	20.500	-0.00107	0.78104	0.22420	-0.02710	0.44107	0.25386	0.22098	0.53329	0.23591	0.29478	0.57963	0.18478 
2462	20.508	-0.00110	0.78103	0.22422	-0.02711	0.44108	0.25388	0.22079	0.53369	0.23593	0.29452	0.58014	0.18479 
2463	20.517	-0.00113	0.78102	0.22423	-0.02713	0.44108	0.25391	0.22060	0.53408	0.23596	0.29427	0.58065	0.18481 
2464	20.525	-0.00116	0.78102	0.22424	-0.02715	0.44109	0.25394	0.22042	0.53447	0.23600	0.29401	0.58115	0.18483 
2465	20.533	-0.00119	0.78101	0.22425	-0.02717	0.44109	0.25397	0.22023	0.53485	0.23605	0.29375	0.58164	0.18486 
2466	20.542	-0.00122	0.78100	0.22426	-0.02719	0.44109	0.25401	0.22003	0.53524	0.23610	0.29348	0.58213	0.18487 
2467	20.550	-0.00126	0.78099	0.22427	-0.02722	0.44109	0.25404	0.21984	0.53561	0.23615	0.29321	0.58261	0.18488 
2468	20.558	-0.00129	0.78098	0.22428	-0.02725	0.44110	0.25408	0.21964	0.53598	0.23618	0.29294	0.58308	0.18488 
2469	20.567	-0.00132	0.78098	0.22429	-0.02728	0.44110	0.25411	0.21944	0.53634	0.23619	0.29266	0.58355	0.18488 
2470	20.575	-0.00136	0.78097	0.22430	-0.02732	0.44110	0.25415	0.21923	0.53670	0.23619	0.29237	0.58402	0.18487 
2471	20.583	-0.00139	0.78097	0.22431	-0.02736	0.44111	0.25419	0.21903	0.53706	0.23618	0.29208	0.58448	0.18486 
2472	20.592	-0.00142	0.78096	0.22432	-0.02740	0.44111	0.25422	0.21882	0.53741	0.23619	0.29179	0.58494	0.18485 
2473	20.600	-0.00145	0.78096	0.22432	-0.02744	0.44112	0.25426	0.21862	0.53777	0.23620	0.29150	0.58539	0.18484 
2474	20.608	-0.00148	0.78096	0.22433	-0.02748	0.44113	0.25430	0.21841	0.53812	0.23622	0.29121	0.58584	0.18483 
2475	20.617	-0.00151	0.78097	0.22434	-0.02752	0.44113	0.25433	0.21820	0.53847	0.23623	0.29092	0.58628	0.18482 
2476	20.625	-0.00155	0.78097	0.22435	-0.02756	0.44114	0.25437	0.21799	0.53881	0.23624	0.29064	0.58672	0.18480 
2477	20.633	-0.00158	0.78098	0.22435	-0.02761	0.44114	0.25440	0.21779	0.53915	0.23624	0.29037	0.58716	0.18479 
2478	20.642	-0.00161	0.78099	0.22435	-0.02765	0.44115	0.25444	0.21759	0.53949	0.23623	0.29011	0.58760	0.18477 
2479	20.650	-0.00165	0.78102	0.22435	-0.02769	0.44116	0.25448	0.21740	0.53983	0.23621	0.28985	0.58803	0.18474 
2480	20.658	-0.00168	0.78104	0.22434	-0.02773	0.44117	0.25451	0.21721	0.54017	0.23618	0.28959	0.58845	0.18472 
2481	20.667	-0.00171	0.78106	0.22435	-0.02777	0.44118	0.25455	0.21702	0.54050	0.23616	0.28933	0.58888	0.18468 
2482	20.675	-0.00174	0.78107	0.22436	-0.02781	0.44119	0.25460	0.21683	0.54083	0.23613	0.28907	0.58929	0.18465 
2483	20.683	-0.00177	0.78107	0.22439	-0.02784	0.44121	0.25464	0.21665	0.54116	0.23610	0.28881	0.58970	0.18461 
2484	20.692	-0.00180	0.78107	0.22442	-0.02787	0.44123	0.25469	0.21646	0.54149	0.23607	0.28856	0.59011	0.18456 
2485	20.700	-0.00182	0.78107	0.22445	-0.02790	0.44125	0.25474	0.21629	0.54181	0.23604	0.28831	0.59051	0.18452 
2486	20.708	-0.00186	0.78108	0.22448	-0.02792	0.44127	0.25480	0.21611	0.54214	0.23602	0.28807	0.59091	0.18447 
2487	20.717	-0.00189	0.78109	0.22450	-0.02794	0.44129	0.25487	0.21594	0.54246	0.23601	0.28783	0.59130	0.18444 
2488	20.725	-0.00193	0.78112	0.22453	-0.02795	0.44132	0.25494	0.21577	0.54278	0.23602	0.28759	0.59170	0.18441 
2489	20.733	-0.00197	0.78115	0.22455	-0.02797	0.44135	0.25502	0.21560	0.54310	0.23603	0.28736	0.59211	0.18439 
2490	20.742	-0.00201	0.78118	0.22458	-0.02798	0.44138	0.25511	0.21543	0.54342	0.23606	0.28713	0.59252	0.18439 
2491	20.750	-0.00206	0.78123	0.22459	-0.02799	0.44141	0.25520	0.21526	0.54375	0.23608	0.28690	0.59293	0.18439 
2492	20.758	-0.00210	0.78129	0.22461	-0.02800	0.44144	0.25529	0.21509	0.54408	0.23609	0.28667	0.59335	0.18439 
2493	20.767	-0.00215	0.78136	0.22462	-0.02801	0.44148	0.25538	0.21491	0.54442	0.23610	0.28644	0.59378	0.18439 
2494	20.775	-0.00220	0.78142	0.22465	-0.02802	0.44151	0.25548	0.21474	0.54475	0.23610	0.28621	0.59420	0.18438 
2495	20.783	-0.00225	0.78146	0.22468	-0.02802	0.44155	0.25557	0.21457	0.54509	0.23609	0.28598	0.59463	0.18437 
2496	20.792	-0.00227	0.78147	0.22473	-0.02802	0.44159	0.25566	0.21441	0.54543	0.23608	0.28576	0.59505	0.18435 
2497	20.800	-0.00229	0.78145	0.22478	-0.02801	0.44163	0.25574	0.21424	0.54576	0.23608	0.28553	0.59548	0.18434 
2498	20.808	-0.00231	0.78143	0.22483	-0.02800	0.44167	0.25583	0.21409	0.54611	0.23609	0.28530	0.59590	0.18432 
2499	20.817	-0.00233	0.78142	0.22487	-0.02798	0.44171	0.25591	0.21394	0.54645	0.23612	0.28508	0.59633	0.18432 
2500	20.825	-0.00236	0.78143	0.22492	-0.02796	0.44174	0.25599	0.21379	0.54679	0.23615	0.28486	0.59676	0.18432 
2501	20.833	-0.00239	0.78145	0.22495	-0.02793	0.44177	0.25607	0.21365	0.54714	0.23618	0.28465	0.59719	0.18432 
2502	20.842	-0.00243	0.78148	0.22499	-0.02789	0.44180	0.25615	0.21352	0.54748	0.23620	0.28443	0.59763	0.18433 
2503	20.850	-0.00246	0.78151	0.22502	-0.02786	0.44183	0.25622	0.21340	0.54783	0.23622	0.28423	0.59808	0.18435 
2504	20.858	-0.00249	0.78154	0.22506	-0.02781	0.44186	0.25630	0.21329	0.54817	0.23623	0.28403	0.59852	0.18435 
2505	20.867	-0.00252	0.78155	0.22509	-0.02776	0.44188	0.25637	0.21318	0.54852	0.23624	0.28382	0.59895	0.18434 
2506	20.875	-0.00253	0.78156	0.22513	-0.02771	0.44191	0.25644	0.21307	0.54887	0.23625	0.28362	0.59938	0.18431 
2507	20.883	-0.00255	0.78157	0.22517	-0.02765	0.44193	0.25650	0.21297	0.54922	0.23625	0.28343	0.59981	0.18429 
2508	20.892	-0.00257	0.78160	0.22520	-0.02760	0.44196	0.25657	0.21287	0.54956	0.23626	0.28324	0.60024	0.18426 
2509	20.900	-0.00258	0.78162	0.22524	-0.02754	0.44198	0.25665	0.21277	0.54991	0.23625	0.28304	0.60068	0.18422 
2510	20.908	-0.00260	0.78166	0.22527	-0.02747	0.44201	0.25672	0.21267	0.55025	0.23624	0.28285	0.60111	0.18419 
2511	20.917	-0.00262	0.78170	0.22530	-0.02740	0.44203	0.25679	0.21257	0.55058	0.23623	0.28266	0.60154	0.18414 
2512	20.925	-0.00264	0.78174	0.22533	-0.02733	0.44206	0.25687	0.21248	0.55091	0.23620	0.28247	0.60198	0.18410 
2513	20.933	-0.00266	0.78179	0.22535	-0.02726	0.44209	0.25695	0.21239	0.55123	0.23617	0.28227	0.60242	0.18405 
2514	20.942	-0.00266	0.78181	0.22539	-0.02719	0.44211	0.25703	0.21231	0.55155	0.23612	0.28208	0.60285	0.18400 
2515	20.950	-0.00267	0.78182	0.22542	-0.02712	0.44214	0.25710	0.21223	0.55186	0.23606	0.28189	0.60327	0.18395 
2516	20.958	-0.00267	0.78185	0.22546	-0.02704	0.44217	0.25718	0.21216	0.55216	0.23598	0.28171	0.60369	0.18390 
2517	20.967	-0.00269	0.78188	0.22549	-0.02697	0.44220	0.25726	0.21211	0.55244	0.23588	0.28153	0.60411	0.18384 
2518	20.975	-0.00270	0.78193	0.22552	-0.02690	0.44223	0.25733	0.21207	0.55271	0.23574	0.28137	0.60451	0.18379 
2519	20.983	-0.00273	0.78198	0.22555	-0.02682	0.44227	0.25740	0.21204	0.55295	0.23557	0.28120	0.60491	0.18373 
2520	20.992	-0.00275	0.78204	0.22558	-0.02675	0.44230	0.25747	0.21205	0.55314	0.23535	0.28104	0.60529	0.18368 
2521	21.000	-0.00277	0.78209	0.22561	-0.02667	0.44233	0.25754	0.21208	0.55328	0.23505	0.28088	0.60567	0.18363 
2522	21.008	-0.00278	0.78213	0.22564	-0.02659	0.44236	0.25760	0.21216	0.55334	0.23464	0.28073	0.60605	0.18359 
2523	21.017	-0.00278	0.78216	0.22566	-0.02652	0.44240	0.25767	0.21226	0.55336	0.23418	0.28057	0.60643	0.18355 
2524	21.025	-0.00278	0.78221	0.22569	-0.02644	0.44243	0.25773	0.21234	0.55342	0.23378	0.28041	0.60681	0.18352 
2525	21.033	-0.00279	0.78225	0.22572	-0.02637	0.44246	0.25779	0.21237	0.55355	0.23350	0.28025	0.60720	0.18349 
2526	21.042	-0.00279	0.78228	0.22574	-0.02631	0.44250	0.25784	0.21235	0.55373	0.23331	0.28009	0.60758	0.18346 
2527	21.050	-0.00279	0.78232	0.22577	-0.02624	0.44253	0.25790	0.21231	0.55395	0.23319	0.27993	0.60797	0.18343 
2528	21.058	-0.00279	0.78235	0.22579	-0.02619	0.44257	0.25795	0.21224	0.55421	0.23313	0.27977	0.60835	0.18341 
2529	21.067	-0.00279	0.78238	0.22581	-0.02613	0.44261	0.25800	0.21214	0.55449	0.23311	0.27961	0.60873	0.18338 
2530	21.075	-0.00279	0.78241	0.22583	-0.02608	0.44266	0.25806	0.21202	0.55482	0.23314	0.27944	0.60911	0.18336 
2531	21.083	-0.00279	0.78244	0.22585	-0.02603	0.44271	0.25811	0.21188	0.55518	0.23323	0.27928	0.60949	0.18335 
2532	21.092	-0.00279	0.78247	0.22586	-0.02598	0.44277	0.25817	0.21171	0.55559	0.23340	0.27911	0.60988	0.18333 
2533	21.100	-0.00279	0.78249	0.22588	-0.02594	0.44283	0.25822	0.21150	0.55606	0.23366	0.27893	0.61026	0.18331 
2534	21.108	-0.00279	0.78252	0.22590	-0.02590	0.44290	0.25828	0.21124	0.55661	0.23405	0.27875	0.61065	0.18328 
2535	21.117	-0.00279	0.78255	0.22591	-0.02586	0.44297	0.25833	0.21095	0.55722	0.23452	0.27856	0.61104	0.18325 
